{"accessors":[{"bufferView":0,"byteOffset":0,"componentType":5123,"count":2076,"type":"SCALAR"},{"bufferView":1,"byteOffset":0,"componentType":5126,"count":1408,"max":[0.875402808189392,1.73970437049866,0.21926474571228],"min":[-0.87540280818939,-0.0053707882762,-0.10310903936625],"type":"VEC3"},{"bufferView":2,"byteOffset":0,"componentType":5126,"count":1408,"type":"VEC3"},{"bufferView":3,"byteOffset":0,"componentType":5126,"count":1408,"type":"VEC2"},{"bufferView":4,"byteOffset":0,"componentType":5123,"count":1408,"type":"VEC4"},{"bufferView":5,"byteOffset":0,"componentType":5123,"count":1408,"type":"VEC4"},{"bufferView":6,"byteOffset":0,"componentType":5126,"count":1408,"type":"VEC4"},{"bufferView":7,"byteOffset":0,"componentType":5126,"count":1408,"type":"VEC4"},{"bufferView":8,"byteOffset":0,"componentType":5126,"count":28,"type":"MAT4"}],"asset":{"generator":"FBX2glTF v0.13.1","version":"2.0"},"bufferViews":[{"buffer":0,"byteLength":4152,"byteOffset":0,"target":34963},{"buffer":0,"byteLength":16896,"byteOffset":4152,"target":34962},{"buffer":0,"byteLength":16896,"byteOffset":21048,"target":34962},{"buffer":0,"byteLength":11264,"byteOffset":37944,"target":34962},{"buffer":0,"byteLength":11264,"byteOffset":49208,"target":34962},{"buffer":0,"byteLength":11264,"byteOffset":60472,"target":34962},{"buffer":0,"byteLength":22528,"byteOffset":71736,"target":34962},{"buffer":0,"byteLength":22528,"byteOffset":94264,"target":34962},{"buffer":0,"byteLength":1792,"byteOffset":116792}],"buffers":[{"byteLength":118584,"uri":"LowBody.bin"}],"materials":[{"alphaMode":"OPAQUE","doubleSided":false,"extras":{"fromFBX":{"isTruePBR":false,"shadingModel":"Phong"}},"name":"MazeLowMan","pbrMetallicRoughness":{"baseColorFactor":[0,0.800000011920929,0.800000011920929,1],"metallicFactor":0.400000005960464,"roughnessFactor":0.70710676908493}}],"meshes":[{"name":"LowMan","primitives":[{"attributes":{"JOINTS_0":4,"JOINTS_1":5,"NORMAL":2,"POSITION":1,"TEXCOORD_0":3,"WEIGHTS_0":6,"WEIGHTS_1":7},"indices":0,"material":0,"mode":4}]}],"nodes":[{"mesh":0,"name":"LowMan","rotation":[0,0,0,1],"scale":[1,1,1],"skin":0,"translation":[0,0,0]},{"children":[2],"name":"LowManSkeleton","rotation":[0,0,0,1],"scale":[1,1,1],"translation":[0,0,0]},{"children":[3,7,11],"name":"LowManHips","rotation":[0,0,0,1],"scale":[1,1,1],"translation":[0,0.921600043773651,0]},{"children":[4],"name":"LowManLeftUpLeg","rotation":[0.707102954387665,0.00231402320787311,-0.00231399317272,0.70710301399231],"scale":[1,1,1],"translation":[0.0972679853439331,-0.05778434500098,0]},{"children":[5],"name":"LowManLeftLeg","rotation":[0.0000000411892280283155,-0.00000002196043,0.00952462293207645,0.999954640865326],"scale":[1,1,1],"translation":[-0.00000001690981,-0.00000001514457,0.413962543010712]},{"children":[6],"name":"LowManLeftFoot","rotation":[-0.52928256988525,-0.00394463539124,-0.05329762771726,0.846760749816895],"scale":[1,1,1],"translation":[0.00000000178770809267093,-0.00000001478826,0.3556147813797]},{"name":"LowManLeftToeBase","rotation":[-0.26146143674851,-0.0461645424366,-0.01252063922584,0.964028000831604],"scale":[1,1,1],"translation":[-0.00000001722315,0.00000001490721857067,0.183456137776375]},{"children":[8],"name":"LowManRightUpLeg","rotation":[0.707102954387665,-0.00231402320787,0.00231399317272007,0.70710301399231],"scale":[1,1,1],"translation":[-0.09726798534393,-0.05778434500098,0]},{"children":[9],"name":"LowManRightLeg","rotation":[0.0000000411892280283155,0.00000002196042814262,-0.00952462293208,0.999954640865326],"scale":[1,1,1],"translation":[0.0000000169098051117089,-0.00000001514457,0.413962543010712]},{"children":[10],"name":"LowManRightFoot","rotation":[-0.52928256988525,0.00394463539123535,0.0532976277172565,0.846760749816895],"scale":[1,1,1],"translation":[-0.00000000178771,-0.00000001478826,0.3556147813797]},{"name":"LowManRightToeBase","rotation":[-0.26146143674851,0.0461645536124706,0.0125206420198083,0.964028000831604],"scale":[1,1,1],"translation":[0.0000000172231438000381,0.00000001490721857067,0.183456137776375]},{"children":[12],"name":"LowManSpine","rotation":[-0.70710676908493,-0,0,0.70710676908493],"scale":[1,1,1],"translation":[0,0.0645119473338127,0]},{"children":[13],"name":"LowManSpine1","rotation":[-0,-0,0,1],"scale":[1,1,1],"translation":[0.0000000000000000163257428038814,-0,0.147049233317375]},{"children":[14,21,28],"name":"LowManSpine2","rotation":[0.00000000000000000000000000000001,0.352939039468765,-0,0.935646295547485],"scale":[1,1,1],"translation":[0.0000000000000000163257345320753,-0,0.147049158811569]},{"children":[15],"name":"LowManLeftShoulder","rotation":[0.41203048825264,-0,0.911170065402985,0.0000000000000000557930742363506],"scale":[1,1,1],"translation":[-0.00000007097805,-0,0.0976786091923714]},{"children":[16],"name":"LowManLeftArm","rotation":[-0,-0.01486421190202,-0,0.999889492988586],"scale":[1,1,1],"translation":[-0.00000004557521,0.000000000000000111436435399274,0.0986780151724815]},{"children":[17],"name":"LowManLeftForeArm","rotation":[-0.01577431149781,0.018468426540494,0.00017738818132784,0.999704957008362],"scale":[1,1,1],"translation":[0.00000000565099478322395,0.000000000000000304108227349462,0.251758307218552]},{"children":[18,19],"name":"LowManLeftHand","rotation":[-0.36691206693649,-0.12637622654438,-0.01134704332799,0.921561598777771],"scale":[1,1,1],"translation":[0.0000000742784607155045,-0.00000000058574,0.260242909193039]},{"name":"LowManLeftHandThumb1","rotation":[0.27076068520546,0.0800161808729172,-0.43018421530724,0.857454121112823],"scale":[1,1,1],"translation":[-0.00000013602212,0.00000000524661292189421,0.075032502412796]},{"children":[20],"name":"LowManLeftHandMiddle1","rotation":[0.38081231713295,0.125146001577377,0.00337332929484546,0.916138172149658],"scale":[1,1,1],"translation":[0.0224190652370453,-0.06474134325981,0.0692921876907349]},{"name":"LowManLeftHandMiddle2","rotation":[-0.55622959136963,-0.39916336536407,-0.43658754229546,0.583668231964111],"scale":[1,1,1],"translation":[0.0000000223346390271217,-0.00000000180203,0.0992452725768089]},{"children":[22],"name":"LowManRightShoulder","rotation":[-0,0.9111647605896,0.0000000000000000305624442794827,-0.41204217076302],"scale":[1,1,1],"translation":[-0.09688006341457,0.0000000000000000502851829398254,0.0124644348397851]},{"children":[23],"name":"LowManRightArm","rotation":[-0,-0.01486421190202,-0,0.999889492988586],"scale":[1,1,1],"translation":[-0.00000004557521,0.000000000000000120509878800042,0.0986780151724815]},{"children":[24],"name":"LowManRightForeArm","rotation":[0.0157743114978075,0.018468426540494,-0.00017738818133,0.999704957008362],"scale":[1,1,1],"translation":[0.00000000565099300686711,0.000000000000000299274342668379,0.251758307218552]},{"children":[25,26],"name":"LowManRightHand","rotation":[0.366913378238678,-0.1305814832449,0.0128720002248883,0.920954585075378],"scale":[1,1,1],"translation":[0.0000000742784607155045,0.000000000585739678982122,0.260242909193039]},{"name":"LowManRightHandThumb1","rotation":[-0.27984207868576,-0.03744786977768,0.0428035371005535,0.958360016345978],"scale":[1,1,1],"translation":[-0.00000002055548,0.000000021816362050231,0.0750325247645378]},{"children":[27],"name":"LowManRightHandMiddle1","rotation":[-0.38078534603119,0.129384025931358,-0.00481498427689,0.915553987026215],"scale":[1,1,1],"translation":[0.022419061511755,0.0647413730621338,0.0692922174930573]},{"name":"LowManRightHandMiddle2","rotation":[-0.3991664648056,-0.55623191595078,0.583666086196899,-0.43658456206322],"scale":[1,1,1],"translation":[0.0000000852079580226928,-0.00000000096274,0.0992452576756477]},{"children":[29],"name":"LowManNeck","rotation":[0.00000000000000000000000000000001,-0.35293903946876,-0,0.935646295547485],"scale":[1,1,1],"translation":[-0.09711897373199,-0,0.110414579510689]},{"name":"LowManHead","rotation":[0.70710676908493,0.0000000000000000392523174127646,-0,0.70710676908493],"scale":[1,1,1],"translation":[-0,-0,0.103392325341702]}],"samplers":[{}],"scene":0,"scenes":[{"name":"Root Scene","nodes":[0,1]}],"skins":[{"inverseBindMatrices":8,"joints":[2,3,4,5,6,7,8,9,10,11,12,13,14,15,16,17,18,19,20,21,22,23,24,25,26,27,28,29],"skeleton":2},{"joints":[2,3,4,5,6,7,8,9,10,11,12,13,14,15,16,17,18,19,20,21,22,23,24,25,26,27,28,29]},{"joints":[2,3,4,5,6,7,8,9,10,11,12,13,14,15,16,17,18,19,20,21,22,23,24,25,26,27,28,29,1]}]}