{"accessors":[{"bufferView":0,"byteOffset":0,"componentType":5123,"count":2484,"type":"SCALAR"},{"bufferView":1,"byteOffset":0,"componentType":5126,"count":1602,"max":[11.0044097900391,0.550000011920929,11],"min":[-11,-0.55000001192093,-11.0028648376465],"type":"VEC3"},{"bufferView":2,"byteOffset":0,"componentType":5126,"count":1602,"type":"VEC3"},{"bufferView":3,"byteOffset":0,"componentType":5123,"count":36,"type":"SCALAR"},{"bufferView":4,"byteOffset":0,"componentType":5126,"count":24,"max":[11,1.10000002384186,11],"min":[-11,-0.22000002861023,-11],"type":"VEC3"},{"bufferView":5,"byteOffset":0,"componentType":5126,"count":24,"type":"VEC3"}],"asset":{"generator":"FBX2glTF v0.13.1","version":"2.0"},"bufferViews":[{"buffer":0,"byteLength":4968,"byteOffset":0,"target":34963},{"buffer":0,"byteLength":19224,"byteOffset":4968,"target":34962},{"buffer":0,"byteLength":19224,"byteOffset":24192,"target":34962},{"buffer":0,"byteLength":72,"byteOffset":43416,"target":34963},{"buffer":0,"byteLength":288,"byteOffset":43488,"target":34962},{"buffer":0,"byteLength":288,"byteOffset":43776,"target":34962}],"buffers":[{"byteLength":44064,"uri":"Level.bin"}],"materials":[{"alphaMode":"OPAQUE","doubleSided":false,"extras":{"fromFBX":{"isTruePBR":false,"shadingModel":"Lambert"}},"name":"DefaultMaterial","pbrMetallicRoughness":{"baseColorFactor":[0.5,0.5,0.5,1],"metallicFactor":0.200000002980232,"roughnessFactor":0.800000011920929}}],"meshes":[{"name":"Walls","primitives":[{"attributes":{"NORMAL":2,"POSITION":1},"indices":0,"material":0,"mode":4}]},{"name":"Ground","primitives":[{"attributes":{"NORMAL":5,"POSITION":4},"indices":3,"material":0,"mode":4}]}],"nodes":[{"mesh":0,"name":"Walls","rotation":[0,0,0,1],"scale":[1,1,1],"translation":[0,0.0750000476837158,0]},{"mesh":1,"name":"Ground","rotation":[0,0,0,1],"scale":[1,1,1],"translation":[0,-1.57499992847443,0]}],"samplers":[{}],"scene":0,"scenes":[{"name":"Root Scene","nodes":[0,1]}]}