{"accessors":[{"bufferView":0,"byteOffset":0,"componentType":5126,"count":80,"max":[2.63333344459534],"min":[0],"type":"SCALAR"},{"bufferView":1,"byteOffset":0,"componentType":5126,"count":80,"type":"VEC3"},{"bufferView":2,"byteOffset":0,"componentType":5126,"count":80,"type":"VEC4"},{"bufferView":3,"byteOffset":0,"componentType":5126,"count":80,"type":"VEC3"},{"bufferView":4,"byteOffset":0,"componentType":5126,"count":80,"type":"VEC4"},{"bufferView":5,"byteOffset":0,"componentType":5126,"count":80,"type":"VEC3"},{"bufferView":6,"byteOffset":0,"componentType":5126,"count":80,"type":"VEC4"},{"bufferView":7,"byteOffset":0,"componentType":5126,"count":80,"type":"VEC3"},{"bufferView":8,"byteOffset":0,"componentType":5126,"count":80,"type":"VEC4"},{"bufferView":9,"byteOffset":0,"componentType":5126,"count":80,"type":"VEC3"},{"bufferView":10,"byteOffset":0,"componentType":5126,"count":80,"type":"VEC4"},{"bufferView":11,"byteOffset":0,"componentType":5126,"count":80,"type":"VEC3"},{"bufferView":12,"byteOffset":0,"componentType":5126,"count":80,"type":"VEC4"},{"bufferView":13,"byteOffset":0,"componentType":5126,"count":80,"type":"VEC3"},{"bufferView":14,"byteOffset":0,"componentType":5126,"count":80,"type":"VEC4"},{"bufferView":15,"byteOffset":0,"componentType":5126,"count":80,"type":"VEC3"},{"bufferView":16,"byteOffset":0,"componentType":5126,"count":80,"type":"VEC4"},{"bufferView":17,"byteOffset":0,"componentType":5126,"count":80,"type":"VEC3"},{"bufferView":18,"byteOffset":0,"componentType":5126,"count":80,"type":"VEC3"},{"bufferView":19,"byteOffset":0,"componentType":5126,"count":80,"type":"VEC4"},{"bufferView":20,"byteOffset":0,"componentType":5126,"count":80,"type":"VEC4"},{"bufferView":21,"byteOffset":0,"componentType":5126,"count":80,"type":"VEC4"},{"bufferView":22,"byteOffset":0,"componentType":5126,"count":80,"type":"VEC3"},{"bufferView":23,"byteOffset":0,"componentType":5126,"count":80,"type":"VEC3"},{"bufferView":24,"byteOffset":0,"componentType":5126,"count":80,"type":"VEC4"},{"bufferView":25,"byteOffset":0,"componentType":5126,"count":80,"type":"VEC3"},{"bufferView":26,"byteOffset":0,"componentType":5126,"count":80,"type":"VEC4"},{"bufferView":27,"byteOffset":0,"componentType":5126,"count":80,"type":"VEC3"},{"bufferView":28,"byteOffset":0,"componentType":5126,"count":80,"type":"VEC4"},{"bufferView":29,"byteOffset":0,"componentType":5126,"count":80,"type":"VEC3"},{"bufferView":30,"byteOffset":0,"componentType":5126,"count":80,"type":"VEC4"},{"bufferView":31,"byteOffset":0,"componentType":5126,"count":80,"type":"VEC3"},{"bufferView":32,"byteOffset":0,"componentType":5126,"count":80,"type":"VEC3"},{"bufferView":33,"byteOffset":0,"componentType":5126,"count":80,"type":"VEC4"},{"bufferView":34,"byteOffset":0,"componentType":5126,"count":80,"type":"VEC3"},{"bufferView":35,"byteOffset":0,"componentType":5126,"count":80,"type":"VEC3"},{"bufferView":36,"byteOffset":0,"componentType":5126,"count":80,"type":"VEC3"},{"bufferView":37,"byteOffset":0,"componentType":5126,"count":80,"type":"VEC4"},{"bufferView":38,"byteOffset":0,"componentType":5126,"count":80,"type":"VEC3"},{"bufferView":39,"byteOffset":0,"componentType":5126,"count":80,"type":"VEC4"},{"bufferView":40,"byteOffset":0,"componentType":5126,"count":80,"type":"VEC3"},{"bufferView":41,"byteOffset":0,"componentType":5126,"count":80,"type":"VEC3"},{"bufferView":42,"byteOffset":0,"componentType":5126,"count":80,"type":"VEC3"},{"bufferView":43,"byteOffset":0,"componentType":5126,"count":80,"type":"VEC3"},{"bufferView":44,"byteOffset":0,"componentType":5126,"count":80,"type":"VEC4"},{"bufferView":45,"byteOffset":0,"componentType":5126,"count":80,"type":"VEC3"},{"bufferView":46,"byteOffset":0,"componentType":5126,"count":80,"type":"VEC3"},{"bufferView":47,"byteOffset":0,"componentType":5126,"count":80,"type":"VEC4"},{"bufferView":48,"byteOffset":0,"componentType":5126,"count":80,"type":"VEC3"},{"bufferView":49,"byteOffset":0,"componentType":5126,"count":80,"type":"VEC4"}],"animations":[{"channels":[{"sampler":0,"target":{"node":1,"path":"translation"}},{"sampler":1,"target":{"node":1,"path":"rotation"}},{"sampler":2,"target":{"node":2,"path":"translation"}},{"sampler":3,"target":{"node":2,"path":"rotation"}},{"sampler":4,"target":{"node":3,"path":"translation"}},{"sampler":5,"target":{"node":3,"path":"rotation"}},{"sampler":6,"target":{"node":4,"path":"translation"}},{"sampler":7,"target":{"node":4,"path":"rotation"}},{"sampler":8,"target":{"node":5,"path":"translation"}},{"sampler":9,"target":{"node":5,"path":"rotation"}},{"sampler":10,"target":{"node":6,"path":"translation"}},{"sampler":11,"target":{"node":6,"path":"rotation"}},{"sampler":12,"target":{"node":7,"path":"translation"}},{"sampler":13,"target":{"node":7,"path":"rotation"}},{"sampler":14,"target":{"node":8,"path":"translation"}},{"sampler":15,"target":{"node":8,"path":"rotation"}},{"sampler":16,"target":{"node":9,"path":"translation"}},{"sampler":17,"target":{"node":10,"path":"translation"}},{"sampler":18,"target":{"node":10,"path":"rotation"}},{"sampler":19,"target":{"node":11,"path":"rotation"}},{"sampler":20,"target":{"node":12,"path":"rotation"}},{"sampler":21,"target":{"node":13,"path":"translation"}},{"sampler":22,"target":{"node":14,"path":"translation"}},{"sampler":23,"target":{"node":14,"path":"rotation"}},{"sampler":24,"target":{"node":15,"path":"translation"}},{"sampler":25,"target":{"node":15,"path":"rotation"}},{"sampler":26,"target":{"node":16,"path":"translation"}},{"sampler":27,"target":{"node":16,"path":"rotation"}},{"sampler":28,"target":{"node":17,"path":"translation"}},{"sampler":29,"target":{"node":17,"path":"rotation"}},{"sampler":30,"target":{"node":18,"path":"translation"}},{"sampler":31,"target":{"node":19,"path":"translation"}},{"sampler":32,"target":{"node":19,"path":"rotation"}},{"sampler":33,"target":{"node":20,"path":"translation"}},{"sampler":34,"target":{"node":21,"path":"translation"}},{"sampler":35,"target":{"node":22,"path":"translation"}},{"sampler":36,"target":{"node":22,"path":"rotation"}},{"sampler":37,"target":{"node":23,"path":"translation"}},{"sampler":38,"target":{"node":23,"path":"rotation"}},{"sampler":39,"target":{"node":24,"path":"translation"}},{"sampler":40,"target":{"node":25,"path":"translation"}},{"sampler":41,"target":{"node":26,"path":"translation"}},{"sampler":42,"target":{"node":27,"path":"translation"}},{"sampler":43,"target":{"node":27,"path":"rotation"}},{"sampler":44,"target":{"node":28,"path":"translation"}},{"sampler":45,"target":{"node":29,"path":"translation"}},{"sampler":46,"target":{"node":29,"path":"rotation"}},{"sampler":47,"target":{"node":30,"path":"translation"}},{"sampler":48,"target":{"node":30,"path":"rotation"}}],"name":"Take 001","samplers":[{"input":0,"interpolation":"LINEAR","output":1},{"input":0,"interpolation":"LINEAR","output":2},{"input":0,"interpolation":"LINEAR","output":3},{"input":0,"interpolation":"LINEAR","output":4},{"input":0,"interpolation":"LINEAR","output":5},{"input":0,"interpolation":"LINEAR","output":6},{"input":0,"interpolation":"LINEAR","output":7},{"input":0,"interpolation":"LINEAR","output":8},{"input":0,"interpolation":"LINEAR","output":9},{"input":0,"interpolation":"LINEAR","output":10},{"input":0,"interpolation":"LINEAR","output":11},{"input":0,"interpolation":"LINEAR","output":12},{"input":0,"interpolation":"LINEAR","output":13},{"input":0,"interpolation":"LINEAR","output":14},{"input":0,"interpolation":"LINEAR","output":15},{"input":0,"interpolation":"LINEAR","output":16},{"input":0,"interpolation":"LINEAR","output":17},{"input":0,"interpolation":"LINEAR","output":18},{"input":0,"interpolation":"LINEAR","output":19},{"input":0,"interpolation":"LINEAR","output":20},{"input":0,"interpolation":"LINEAR","output":21},{"input":0,"interpolation":"LINEAR","output":22},{"input":0,"interpolation":"LINEAR","output":23},{"input":0,"interpolation":"LINEAR","output":24},{"input":0,"interpolation":"LINEAR","output":25},{"input":0,"interpolation":"LINEAR","output":26},{"input":0,"interpolation":"LINEAR","output":27},{"input":0,"interpolation":"LINEAR","output":28},{"input":0,"interpolation":"LINEAR","output":29},{"input":0,"interpolation":"LINEAR","output":30},{"input":0,"interpolation":"LINEAR","output":31},{"input":0,"interpolation":"LINEAR","output":32},{"input":0,"interpolation":"LINEAR","output":33},{"input":0,"interpolation":"LINEAR","output":34},{"input":0,"interpolation":"LINEAR","output":35},{"input":0,"interpolation":"LINEAR","output":36},{"input":0,"interpolation":"LINEAR","output":37},{"input":0,"interpolation":"LINEAR","output":38},{"input":0,"interpolation":"LINEAR","output":39},{"input":0,"interpolation":"LINEAR","output":40},{"input":0,"interpolation":"LINEAR","output":41},{"input":0,"interpolation":"LINEAR","output":42},{"input":0,"interpolation":"LINEAR","output":43},{"input":0,"interpolation":"LINEAR","output":44},{"input":0,"interpolation":"LINEAR","output":45},{"input":0,"interpolation":"LINEAR","output":46},{"input":0,"interpolation":"LINEAR","output":47},{"input":0,"interpolation":"LINEAR","output":48},{"input":0,"interpolation":"LINEAR","output":49}]}],"asset":{"generator":"FBX2glTF v0.13.1","version":"2.0"},"bufferViews":[{"buffer":0,"byteLength":320,"byteOffset":0},{"buffer":0,"byteLength":960,"byteOffset":320},{"buffer":0,"byteLength":1280,"byteOffset":1280},{"buffer":0,"byteLength":960,"byteOffset":2560},{"buffer":0,"byteLength":1280,"byteOffset":3520},{"buffer":0,"byteLength":960,"byteOffset":4800},{"buffer":0,"byteLength":1280,"byteOffset":5760},{"buffer":0,"byteLength":960,"byteOffset":7040},{"buffer":0,"byteLength":1280,"byteOffset":8000},{"buffer":0,"byteLength":960,"byteOffset":9280},{"buffer":0,"byteLength":1280,"byteOffset":10240},{"buffer":0,"byteLength":960,"byteOffset":11520},{"buffer":0,"byteLength":1280,"byteOffset":12480},{"buffer":0,"byteLength":960,"byteOffset":13760},{"buffer":0,"byteLength":1280,"byteOffset":14720},{"buffer":0,"byteLength":960,"byteOffset":16000},{"buffer":0,"byteLength":1280,"byteOffset":16960},{"buffer":0,"byteLength":960,"byteOffset":18240},{"buffer":0,"byteLength":960,"byteOffset":19200},{"buffer":0,"byteLength":1280,"byteOffset":20160},{"buffer":0,"byteLength":1280,"byteOffset":21440},{"buffer":0,"byteLength":1280,"byteOffset":22720},{"buffer":0,"byteLength":960,"byteOffset":24000},{"buffer":0,"byteLength":960,"byteOffset":24960},{"buffer":0,"byteLength":1280,"byteOffset":25920},{"buffer":0,"byteLength":960,"byteOffset":27200},{"buffer":0,"byteLength":1280,"byteOffset":28160},{"buffer":0,"byteLength":960,"byteOffset":29440},{"buffer":0,"byteLength":1280,"byteOffset":30400},{"buffer":0,"byteLength":960,"byteOffset":31680},{"buffer":0,"byteLength":1280,"byteOffset":32640},{"buffer":0,"byteLength":960,"byteOffset":33920},{"buffer":0,"byteLength":960,"byteOffset":34880},{"buffer":0,"byteLength":1280,"byteOffset":35840},{"buffer":0,"byteLength":960,"byteOffset":37120},{"buffer":0,"byteLength":960,"byteOffset":38080},{"buffer":0,"byteLength":960,"byteOffset":39040},{"buffer":0,"byteLength":1280,"byteOffset":40000},{"buffer":0,"byteLength":960,"byteOffset":41280},{"buffer":0,"byteLength":1280,"byteOffset":42240},{"buffer":0,"byteLength":960,"byteOffset":43520},{"buffer":0,"byteLength":960,"byteOffset":44480},{"buffer":0,"byteLength":960,"byteOffset":45440},{"buffer":0,"byteLength":960,"byteOffset":46400},{"buffer":0,"byteLength":1280,"byteOffset":47360},{"buffer":0,"byteLength":960,"byteOffset":48640},{"buffer":0,"byteLength":960,"byteOffset":49600},{"buffer":0,"byteLength":1280,"byteOffset":50560},{"buffer":0,"byteLength":960,"byteOffset":51840},{"buffer":0,"byteLength":1280,"byteOffset":52800}],"buffers":[{"byteLength":54080,"uri":"Humanoid_IdleWin.bin"}],"nodes":[{"children":[1],"name":"char_LowMan_Reference","rotation":[0,0,0,1],"scale":[1,1,1],"translation":[0,0,0]},{"children":[2,6,10],"name":"char_LowMan_Hips","rotation":[0.00000000000000000000005128848595,-0,0.0000000298023223876953,1],"scale":[1,1,1],"translation":[0.00715983752161264,0.758808135986328,-0]},{"children":[3],"name":"char_LowMan_LeftUpLeg","rotation":[0.705795109272003,-0.04307345673442,0.0430741123855114,0.705792129039764],"scale":[1,1,1],"translation":[0.0972680151462555,-0.05778438970447,0.00000000000000000000000423516464]},{"children":[4],"name":"char_LowMan_LeftLeg","rotation":[-0.00000220717993,-0.00000059265278,-0.09819624572992,0.995167076587677],"scale":[1,1,1],"translation":[-0.00000028367029,0.00000176261869455629,0.413962930440903]},{"children":[5],"name":"char_LowMan_LeftFoot","rotation":[-0.79898804426193,-0.0652762055397,-0.17020912468433,0.57304972410202],"scale":[1,1,1],"translation":[0.0000000199486684948624,-0.00000006144064,0.355615258216858]},{"name":"char_LowMan_LeftToeBase","rotation":[-0.26146140694618,-0.04616453871131,-0.01252063829452,0.964028000831604],"scale":[1,1,1],"translation":[-0.00000000344435,-0.00000006142496,0.183456242084503]},{"children":[7],"name":"char_LowMan_RightUpLeg","rotation":[0.707153618335724,0.00370177626609802,-0.00371080846526,0.70704060792923],"scale":[1,1,1],"translation":[-0.09726794809103,-0.05778431147337,-0]},{"children":[8],"name":"char_LowMan_RightLeg","rotation":[-0.0000798227702,0.00000774439831729978,0.0221336409449577,0.999755024909973],"scale":[1,1,1],"translation":[0.00000491379068989772,0.0000661135927657597,0.413962513208389]},{"children":[9],"name":"char_LowMan_RightFoot","rotation":[-0.74864876270294,0.0474766530096531,0.136500984430313,0.647022783756256],"scale":[1,1,1],"translation":[-0.00000002537824,0.0000000100147339310297,0.355615109205246]},{"name":"char_LowMan_RightToeBase","rotation":[-0.26146140694618,0.0461645498871803,0.0125206410884857,0.964028000831604],"scale":[1,1,1],"translation":[-0.00000002338111,0.000000088934207553848,0.183456316590309]},{"children":[11],"name":"char_LowMan_Spine","rotation":[-0.69506347179413,0.00078027660492807,-0.00088900543051,0.718947410583496],"scale":[1,1,1],"translation":[0.00000000690300838712687,0.0645119622349739,-0]},{"children":[12],"name":"char_LowMan_Spine1","rotation":[0.0328542329370975,-0,-0,0.999460160732269],"scale":[1,1,1],"translation":[0.00000000227957985821092,-0.00000000154296,0.147049278020859]},{"children":[13,21,29],"name":"char_LowMan_Spine2","rotation":[0.0307399034500122,0.352748483419418,0.0115955006331205,0.935141205787659],"scale":[1,1,1],"translation":[0.00000000273617439816576,0.0000000043288999052038,0.147049188613892]},{"children":[14],"name":"char_LowMan_LeftShoulder","rotation":[0.412030428647995,-0,0.911170065402985,0.0000000000000000644507634263593],"scale":[1,1,1],"translation":[-0.00000008991528,0.00000000669827082688812,0.0976786911487579]},{"children":[15],"name":"char_LowMan_LeftArm","rotation":[0.341230750083923,-0.53651094436645,0.254546642303467,0.728645026683807],"scale":[1,1,1],"translation":[-0.00000005617538,-0.00000000605486,0.0986781269311905]},{"children":[16],"name":"char_LowMan_LeftForeArm","rotation":[-0.71458715200424,0.0130522502586246,0.0131777441129088,0.699300467967987],"scale":[1,1,1],"translation":[-0.00000002133055,-0.00000000727764,0.251758366823196]},{"children":[17,19],"name":"char_LowMan_LeftHand","rotation":[-0.36691206693649,-0.12637615203857,-0.0113470107317,0.921561658382416],"scale":[1,1,1],"translation":[0.0000000405844780004827,0.0000000257752290622193,0.260242909193039]},{"children":[18],"name":"char_LowMan_LeftHandThumb1","rotation":[-0.24854154884815,0.510470747947693,-0.36911061406136,0.735801637172699],"scale":[1,1,1],"translation":[-0.00000012653639,-0.00000002622803,0.075032502412796]},{"name":"char_LowMan_LeftHandThumb2","rotation":[-0.29285728931427,-0.55897611379623,-0.22006373107433,0.743876516819],"scale":[1,1,1],"translation":[0.0000000545895026959897,0.0000000594185891600318,0.0553036406636238]},{"children":[20],"name":"char_LowMan_LeftHandMiddle1","rotation":[0.691685914993286,0.361103594303131,0.480436205863953,0.400444507598877],"scale":[1,1,1],"translation":[0.0224190894514322,-0.06474137306213,0.0692921876907349]},{"name":"char_LowMan_LeftHandMiddle2","rotation":[-0.55622959136963,-0.39916336536407,-0.43658751249313,0.583668231964111],"scale":[1,1,1],"translation":[-0.00000002385733,-0.0000000058002,0.0992452874779701]},{"children":[22],"name":"char_LowMan_RightShoulder","rotation":[0.0000000000000000810230556836183,0.911164820194244,0.0000000000000000810230556836183,-0.41204214096069],"scale":[1,1,1],"translation":[-0.0968801677227,-0.00000000242637,0.0124644637107849]},{"children":[23],"name":"char_LowMan_RightArm","rotation":[-0.08995492756367,-0.55451798439026,-0.07175236195326,0.824178099632263],"scale":[1,1,1],"translation":[-0.00000005628278,-0.00000000618222,0.0986780971288681]},{"children":[24],"name":"char_LowMan_RightForeArm","rotation":[0.411545485258102,0.381080657243729,0.563534677028656,0.606495320796967],"scale":[1,1,1],"translation":[0.0000000702301079513745,-0.00000001399053,0.251758366823196]},{"children":[25,27],"name":"char_LowMan_RightHand","rotation":[0.366913378238678,-0.13058149814606,0.0128720048815012,0.920954585075378],"scale":[1,1,1],"translation":[0.0000000700741153991657,-0.00000002020802,0.260242998600006]},{"children":[26],"name":"char_LowMan_RightHandThumb1","rotation":[-0.2415793389082,-0.13290186226368,0.0732764825224876,0.958439946174622],"scale":[1,1,1],"translation":[0.00000000686705270425136,-0.00000001257649,0.0750325694680214]},{"name":"char_LowMan_RightHandThumb2","rotation":[0.39079475402832,0.495478749275208,-0.58930420875549,0.504480719566345],"scale":[1,1,1],"translation":[-0.00000004541477,-0.00000003430916,0.0553036592900753]},{"children":[28],"name":"char_LowMan_RightHandMiddle1","rotation":[-0.34993508458138,0.17094524204731,0.0905946344137192,0.91657829284668],"scale":[1,1,1],"translation":[0.0224190820008516,0.0647413656115532,0.0692922845482826]},{"name":"char_LowMan_RightHandMiddle2","rotation":[-0.3991664648056,-0.55623185634613,0.583666145801544,-0.43658456206322],"scale":[1,1,1],"translation":[0.0000000671303297394843,0.0000000133355104736665,0.0992452725768089]},{"children":[30],"name":"char_LowMan_Neck","rotation":[-0.0704273879528,-0.35425898432732,-0.04698248207569,0.931307256221771],"scale":[1,1,1],"translation":[-0.09711996465921,-0.00000002917439,0.110415697097778]},{"name":"char_LowMan_Head","rotation":[0.728222846984863,-0.01306916866451,-0.0138924960047,0.685074925422668],"scale":[1,1,1],"translation":[-0.00000009173292,0.0000000747796207178908,0.103393636643887]}],"samplers":[{}],"scene":0,"scenes":[{"name":"Root Scene","nodes":[0]}],"skins":[{"joints":[1,2,3,4,5,6,7,8,9,10,11,12,13,14,15,16,17,18,19,20,21,22,23,24,25,26,27,28,29,30]},{"joints":[1,2,3,4,5,6,7,8,9,10,11,13,14,15,16,17,18,19,20,21,22,23,24,25,26,27,28,29,30,0]}]}