{"accessors":[{"bufferView":0,"byteOffset":0,"componentType":5126,"count":557,"max":[18.533332824707],"min":[0],"type":"SCALAR"},{"bufferView":1,"byteOffset":0,"componentType":5126,"count":557,"type":"VEC3"},{"bufferView":2,"byteOffset":0,"componentType":5126,"count":557,"type":"VEC4"},{"bufferView":3,"byteOffset":0,"componentType":5126,"count":557,"type":"VEC4"},{"bufferView":4,"byteOffset":0,"componentType":5126,"count":557,"type":"VEC4"},{"bufferView":5,"byteOffset":0,"componentType":5126,"count":557,"type":"VEC4"},{"bufferView":6,"byteOffset":0,"componentType":5126,"count":557,"type":"VEC4"},{"bufferView":7,"byteOffset":0,"componentType":5126,"count":557,"type":"VEC4"},{"bufferView":8,"byteOffset":0,"componentType":5126,"count":557,"type":"VEC4"},{"bufferView":9,"byteOffset":0,"componentType":5126,"count":557,"type":"VEC4"},{"bufferView":10,"byteOffset":0,"componentType":5126,"count":557,"type":"VEC4"},{"bufferView":11,"byteOffset":0,"componentType":5126,"count":557,"type":"VEC4"},{"bufferView":12,"byteOffset":0,"componentType":5126,"count":557,"type":"VEC4"},{"bufferView":13,"byteOffset":0,"componentType":5126,"count":557,"type":"VEC4"},{"bufferView":14,"byteOffset":0,"componentType":5126,"count":557,"type":"VEC4"},{"bufferView":15,"byteOffset":0,"componentType":5126,"count":557,"type":"VEC4"},{"bufferView":16,"byteOffset":0,"componentType":5126,"count":557,"type":"VEC4"},{"bufferView":17,"byteOffset":0,"componentType":5126,"count":557,"type":"VEC4"},{"bufferView":18,"byteOffset":0,"componentType":5126,"count":557,"type":"VEC4"},{"bufferView":19,"byteOffset":0,"componentType":5126,"count":557,"type":"VEC4"},{"bufferView":20,"byteOffset":0,"componentType":5126,"count":557,"type":"VEC4"},{"bufferView":21,"byteOffset":0,"componentType":5126,"count":557,"type":"VEC4"},{"bufferView":22,"byteOffset":0,"componentType":5126,"count":557,"type":"VEC4"},{"bufferView":23,"byteOffset":0,"componentType":5126,"count":557,"type":"VEC4"},{"bufferView":24,"byteOffset":0,"componentType":5126,"count":557,"type":"VEC4"}],"animations":[{"channels":[{"sampler":0,"target":{"node":1,"path":"translation"}},{"sampler":1,"target":{"node":1,"path":"rotation"}},{"sampler":2,"target":{"node":2,"path":"rotation"}},{"sampler":3,"target":{"node":3,"path":"rotation"}},{"sampler":4,"target":{"node":4,"path":"rotation"}},{"sampler":5,"target":{"node":5,"path":"rotation"}},{"sampler":6,"target":{"node":30,"path":"rotation"}},{"sampler":7,"target":{"node":31,"path":"rotation"}},{"sampler":8,"target":{"node":32,"path":"rotation"}},{"sampler":9,"target":{"node":33,"path":"rotation"}},{"sampler":10,"target":{"node":47,"path":"rotation"}},{"sampler":11,"target":{"node":49,"path":"rotation"}},{"sampler":12,"target":{"node":50,"path":"rotation"}},{"sampler":13,"target":{"node":51,"path":"rotation"}},{"sampler":14,"target":{"node":52,"path":"rotation"}},{"sampler":15,"target":{"node":66,"path":"rotation"}},{"sampler":16,"target":{"node":68,"path":"rotation"}},{"sampler":17,"target":{"node":69,"path":"rotation"}},{"sampler":18,"target":{"node":70,"path":"rotation"}},{"sampler":19,"target":{"node":71,"path":"rotation"}},{"sampler":20,"target":{"node":72,"path":"rotation"}},{"sampler":21,"target":{"node":73,"path":"rotation"}},{"sampler":22,"target":{"node":74,"path":"rotation"}},{"sampler":23,"target":{"node":75,"path":"rotation"}}],"name":"Take 001","samplers":[{"input":0,"interpolation":"LINEAR","output":1},{"input":0,"interpolation":"LINEAR","output":2},{"input":0,"interpolation":"LINEAR","output":3},{"input":0,"interpolation":"LINEAR","output":4},{"input":0,"interpolation":"LINEAR","output":5},{"input":0,"interpolation":"LINEAR","output":6},{"input":0,"interpolation":"LINEAR","output":7},{"input":0,"interpolation":"LINEAR","output":8},{"input":0,"interpolation":"LINEAR","output":9},{"input":0,"interpolation":"LINEAR","output":10},{"input":0,"interpolation":"LINEAR","output":11},{"input":0,"interpolation":"LINEAR","output":12},{"input":0,"interpolation":"LINEAR","output":13},{"input":0,"interpolation":"LINEAR","output":14},{"input":0,"interpolation":"LINEAR","output":15},{"input":0,"interpolation":"LINEAR","output":16},{"input":0,"interpolation":"LINEAR","output":17},{"input":0,"interpolation":"LINEAR","output":18},{"input":0,"interpolation":"LINEAR","output":19},{"input":0,"interpolation":"LINEAR","output":20},{"input":0,"interpolation":"LINEAR","output":21},{"input":0,"interpolation":"LINEAR","output":22},{"input":0,"interpolation":"LINEAR","output":23},{"input":0,"interpolation":"LINEAR","output":24}]}],"asset":{"generator":"FBX2glTF v0.13.1","version":"2.0"},"bufferViews":[{"buffer":0,"byteLength":2228,"byteOffset":0},{"buffer":0,"byteLength":6684,"byteOffset":2228},{"buffer":0,"byteLength":8912,"byteOffset":8912},{"buffer":0,"byteLength":8912,"byteOffset":17824},{"buffer":0,"byteLength":8912,"byteOffset":26736},{"buffer":0,"byteLength":8912,"byteOffset":35648},{"buffer":0,"byteLength":8912,"byteOffset":44560},{"buffer":0,"byteLength":8912,"byteOffset":53472},{"buffer":0,"byteLength":8912,"byteOffset":62384},{"buffer":0,"byteLength":8912,"byteOffset":71296},{"buffer":0,"byteLength":8912,"byteOffset":80208},{"buffer":0,"byteLength":8912,"byteOffset":89120},{"buffer":0,"byteLength":8912,"byteOffset":98032},{"buffer":0,"byteLength":8912,"byteOffset":106944},{"buffer":0,"byteLength":8912,"byteOffset":115856},{"buffer":0,"byteLength":8912,"byteOffset":124768},{"buffer":0,"byteLength":8912,"byteOffset":133680},{"buffer":0,"byteLength":8912,"byteOffset":142592},{"buffer":0,"byteLength":8912,"byteOffset":151504},{"buffer":0,"byteLength":8912,"byteOffset":160416},{"buffer":0,"byteLength":8912,"byteOffset":169328},{"buffer":0,"byteLength":8912,"byteOffset":178240},{"buffer":0,"byteLength":8912,"byteOffset":187152},{"buffer":0,"byteLength":8912,"byteOffset":196064},{"buffer":0,"byteLength":8912,"byteOffset":204976}],"buffers":[{"byteLength":213888,"uri":"Humanoid_JumpAndFall.bin"}],"nodes":[{"children":[1],"name":"Reference","rotation":[0,0,0,1],"scale":[1,1,1],"translation":[0,0,0]},{"children":[2,68,72],"name":"Hips","rotation":[-0.08454997837543,0,0,0.996419191360474],"scale":[1,1,1],"translation":[0.0285706743597984,0.960032224655151,-0.61654925346375]},{"children":[3],"name":"Spine","rotation":[0,0,0,1],"scale":[1,1,1],"translation":[0,0.0922631844878197,0.0157713312655687]},{"children":[4,30,49],"name":"Chest","rotation":[0,0,0,1],"scale":[1,1,1],"translation":[0,0.162540286779404,0.0218507219105959]},{"children":[5],"name":"Neck","rotation":[0.0315962955355644,0,0,0.999500691890717],"scale":[1,1,1],"translation":[0,0.235723897814751,-0.03241325542331]},{"children":[6,7,8,16,17,18,19,20,21,22,23,24,25,26,27,28,29],"name":"Head","rotation":[0,0,0,1],"scale":[1,1,1],"translation":[0,0.106355801224709,0.0113267814740539]},{"name":"LeftEye","rotation":[0,0,0,1],"scale":[1,1,1],"translation":[0.0208482332527637,0.0825027003884315,0.0554274320602417]},{"name":"RightEye","rotation":[0,0,0,1],"scale":[1,1,1],"translation":[-0.02084999904037,0.0825028270483017,0.055427398532629]},{"children":[9,11,12,13,14,15],"name":"Jaw","rotation":[0.219240039587021,0,0,0.97567093372345],"scale":[1,1,1],"translation":[0,0.011126758530736,0.0103275431320071]},{"children":[10],"name":"TongueBack","rotation":[0.0000000000000000555111512312578,0,0,1],"scale":[1,1,1],"translation":[0,-0.0228693690151,0.0100954091176391]},{"name":"TongueTip","rotation":[0.0000000000000000555111512312578,0,0,1],"scale":[1,1,1],"translation":[0,-0.00040944412467,0.028227299451828]},{"name":"LeftLipLower","rotation":[0.0000000000000000555111512312578,0,0,1],"scale":[1,1,1],"translation":[0.0142508167773485,-0.02168875932693,0.0822406336665154]},{"name":"JawEND","rotation":[0.0000000000000000555111512312578,0,0,1],"scale":[1,1,1],"translation":[0,-0.04828875884414,0.0718517079949379]},{"name":"RightLipLower","rotation":[0.0000000000000000555111512312578,0,0,1],"scale":[1,1,1],"translation":[-0.01425081677735,-0.02168875932693,0.0822387859225273]},{"name":"RightLipCorner","rotation":[0.0000000000000000555111512312578,0,0,1],"scale":[1,1,1],"translation":[-0.03283999860287,-0.01657875999808,0.0661187842488289]},{"name":"LeftLipCorner","rotation":[0.0000000000000000555111512312578,0,0,1],"scale":[1,1,1],"translation":[0.0328432619571686,-0.01657875999808,0.0661217644810677]},{"name":"LeftLipUpper","rotation":[0,0,0,1],"scale":[1,1,1],"translation":[0.0145013220608234,-0.00511181121692,0.0946188420057297]},{"name":"LeftNostril","rotation":[0,0,0,1],"scale":[1,1,1],"translation":[0.0178999993950129,0.0263128280639648,0.0908674001693726]},{"name":"LeftCheek","rotation":[0,0,0,1],"scale":[1,1,1],"translation":[0.0542440265417099,0.0337019488215446,0.0594304017722607]},{"name":"LeftEyelidUpper","rotation":[0,0,0,1],"scale":[1,1,1],"translation":[0.0344068966805935,0.100608140230179,0.0802053064107895]},{"name":"LeftEyelidLower","rotation":[0,0,0,1],"scale":[1,1,1],"translation":[0.0356189571321011,0.065073661506176,0.0762347429990768]},{"name":"LeftInnerBrow","rotation":[0,0,0,1],"scale":[1,1,1],"translation":[0.0120626911520958,0.118765264749527,0.0934668257832527]},{"name":"LeftIOuterBrow","rotation":[0,0,0,1],"scale":[1,1,1],"translation":[0.0550398714840412,0.114825293421745,0.0617773979902267]},{"name":"RightInnerBrow","rotation":[0,0,0,1],"scale":[1,1,1],"translation":[-0.01206268742681,0.118765264749527,0.0934668257832527]},{"name":"RightIOuterBrow","rotation":[0,0,0,1],"scale":[1,1,1],"translation":[-0.0550400018692,0.114822827279568,0.0617773979902267]},{"name":"RightEyelidUpper","rotation":[0,0,0,1],"scale":[1,1,1],"translation":[-0.03440999984741,0.100612826645374,0.0802073925733566]},{"name":"RightEyelidLower","rotation":[0,0,0,1],"scale":[1,1,1],"translation":[-0.03562000021338,0.0650728270411491,0.0762374028563499]},{"name":"RightCheek","rotation":[0,0,0,1],"scale":[1,1,1],"translation":[-0.05423999577761,0.0337028279900551,0.0594273991882801]},{"name":"RightNostril","rotation":[0,0,0,1],"scale":[1,1,1],"translation":[-0.01789999939501,0.0263089053332806,0.0908706188201904]},{"name":"RightLipUpper","rotation":[0,0,0,1],"scale":[1,1,1],"translation":[-0.01450132206082,-0.00510717136785,0.0946174040436745]},{"children":[31],"name":"RightShoulder","rotation":[-0.20243853330612,0.979294896125793,0.00039506156463176,0.0000818392290966585],"scale":[1,1,1],"translation":[-0.03832850977778,0.19217674434185,-0.01706308498979]},{"children":[32],"name":"RightArm","rotation":[-0.19067060947418,0.981102108955383,-0.00819990690798,-0.03187821060419],"scale":[1,1,1],"translation":[0.0835755169391632,0.0360957011580467,-0.00000005155741]},{"children":[33],"name":"RightForeArm","rotation":[-0.00256737018935,-0.04407591372728,0.0320888869464397,0.998509407043457],"scale":[1,1,1],"translation":[-0.25342825055122,0.00601135287433863,-0.01670452393591]},{"children":[34,37,40,43,46],"name":"RightHand","rotation":[-0.00294715189375,-0.06621316820383,-0.01251532323658,0.997722625732422],"scale":[1,1,1],"translation":[-0.24537369608879,0.0216417722404003,0.00555046508088708]},{"children":[35],"name":"RightHandThumb1","rotation":[-0.03506989777088,-0.09710840880871,-0.06271436810493,0.992676675319672],"scale":[1,1,1],"translation":[-0.0146849155426,-0.01110494229943,0.0258580949157476]},{"children":[36],"name":"RightHandThumb2","rotation":[-0.03182201832533,0.133039712905884,0.00088933267397806,0.99059933423996],"scale":[1,1,1],"translation":[-0.01637399941683,-0.00528999976814,0.0234913602471352]},{"name":"RightHandThumb3","rotation":[0.0000000129047839081409,-0,-0,1],"scale":[1,1,1],"translation":[-0.02545999921858,-0.00763999996707,0.0208330005407333]},{"children":[38],"name":"RightHandIndex1","rotation":[-0.00445034867153,-0.10903444886208,-0.02171756699681,0.993790745735168],"scale":[1,1,1],"translation":[-0.07476949691772,-0.00124305358622,0.0343444980680943]},{"children":[39],"name":"RightHandIndex2","rotation":[-0.01844085007906,-0.01711391285062,-0.09865213930607,0.994803905487061],"scale":[1,1,1],"translation":[-0.03705840185285,0.0007261210703291,0.0145388944074512]},{"name":"RightHandIndex3","rotation":[0.00000000000000000173472347597681,-0,0.0000000000000000119262238973405,1],"scale":[1,1,1],"translation":[-0.02522503770888,-0.00496646529064,0.0110121462494135]},{"children":[41],"name":"RightHandMiddle1","rotation":[-0.00024655021844,0.00442666048184037,-0.02934560924768,0.999559462070465],"scale":[1,1,1],"translation":[-0.07564764469862,0.0047914027236402,0.0118531817570329]},{"children":[42],"name":"RightHandMiddle2","rotation":[-0.01011944003403,0.0474141463637352,-0.11354267597198,0.992349565029144],"scale":[1,1,1],"translation":[-0.04380906373262,0.00019418814918026,0.00645493622869253]},{"name":"RightHandMiddle3","rotation":[-0,0,-0,1],"scale":[1,1,1],"translation":[-0.03307247161865,-0.00754753686488,0.00168984616175294]},{"children":[44],"name":"RightHandRing1","rotation":[0.00562212336808443,0.134457141160965,-0.04727522283792,0.989775121212006],"scale":[1,1,1],"translation":[-0.07059847563505,0.00245709647424519,-0.00982145778835]},{"children":[45],"name":"RightHandRing2","rotation":[0.00692372350022197,0.0190397519618273,-0.10999305546284,0.993725895881653],"scale":[1,1,1],"translation":[-0.04288718476892,-0.00137538206764,-0.00494585791603]},{"name":"RightHandRing3","rotation":[0,-0,-0,1],"scale":[1,1,1],"translation":[-0.02950060367584,-0.00769293541089,-0.00462225591764]},{"children":[47],"name":"RightHandPinky1","rotation":[0.0135697787627578,0.267383903264999,-0.05266330763698,0.962054193019867],"scale":[1,1,1],"translation":[-0.06680334359407,-0.00199410878122,-0.03075614571571]},{"children":[48],"name":"RightHandPinky2","rotation":[-0.00017062846746,0.00966134760528803,0.00536240125074983,0.99993896484375],"scale":[1,1,1],"translation":[-0.02853084169328,-0.00139714300167,-0.01162379607558]},{"name":"RightHandPinky3","rotation":[0.00000000000000000130104260698261,-0,-0,1],"scale":[1,1,1],"translation":[-0.02142686024308,-0.00055350892944,-0.00851660780609]},{"children":[50],"name":"LeftShoulder","rotation":[0.000395031296648085,0.0000815825842437334,-0.2024494856596,0.979292631149292],"scale":[1,1,1],"translation":[0.038243506103754,0.192178085446358,-0.01706308498979]},{"children":[51],"name":"LeftArm","rotation":[0.00154573924373835,0.000319669197779149,0.202449291944504,0.979291498661041],"scale":[1,1,1],"translation":[0.0835747718811035,0.0360975749790668,0]},{"children":[52],"name":"LeftForeArm","rotation":[-0.00098980416078,-0.00000005774821,0.0000000062470060235853,0.999999523162842],"scale":[1,1,1],"translation":[0.254049301147461,0.000000000000000284217087951293,0]},{"children":[53,56,59,62,65],"name":"LeftHand","rotation":[0.00268450216390193,0.0662093386054039,0.0124917374923825,0.997723996639252],"scale":[1,1,1],"translation":[0.246389269828796,-0,0.0000000000000000710542719878232]},{"children":[54],"name":"LeftHandThumb1","rotation":[-0.02980031259358,0.10976842045784,0.0192667860537767,0.993323564529419],"scale":[1,1,1],"translation":[0.0142312413081527,-0.01237782463431,0.0255316682159901]},{"children":[55],"name":"LeftHandThumb2","rotation":[-0.03181662783027,-0.13304241001606,-0.00088105129544,0.990599155426025],"scale":[1,1,1],"translation":[0.0163739994168282,-0.00528999976814,0.023491408675909]},{"name":"LeftHandThumb3","rotation":[0.0000000149011611938477,0.00000000000000000001355256916133,0.00000000000000000277249765504094,1],"scale":[1,1,1],"translation":[0.0254599992185831,-0.00763999996707,0.0208330005407333]},{"children":[57],"name":"LeftHandIndex1","rotation":[-0.00212923716754,-0.05134923383594,-0.01312843058258,0.99859219789505],"scale":[1,1,1],"translation":[0.0751257985830307,-0.00784140452743,0.0326526425778866]},{"children":[58],"name":"LeftHandIndex2","rotation":[0.000361341255484149,-0.01489321980625,0.000632595038041472,0.999888837337494],"scale":[1,1,1],"translation":[0.0397972799837589,0.0000498084045830183,0.00118575035594404]},{"name":"LeftHandIndex3","rotation":[-0,0.0000000000000000138777878078145,-0,1],"scale":[1,1,1],"translation":[0.0279684774577618,-0.00000000628122,-0.00000005171866]},{"children":[60],"name":"LeftHandMiddle1","rotation":[-0.00123375747353,-0.07102011144161,-0.01243995688856,0.997396528720856],"scale":[1,1,1],"translation":[0.0760238245129585,-0.00188513437752,0.0101412292569876]},{"children":[61],"name":"LeftHandMiddle2","rotation":[-0.00189370231237,0.00480368547141552,0.0000638742931187153,0.99998664855957],"scale":[1,1,1],"translation":[0.0442804358899593,0.00000479887421533931,-0.0004254001251]},{"name":"LeftHandMiddle3","rotation":[0.0000000000000000002168404344971,-0,0.00000000000000000905139407435945,1],"scale":[1,1,1],"translation":[0.0339648276567459,-0.00000001219793,0.00000000375648268047257]},{"children":[63],"name":"LeftHandRing1","rotation":[0.00207417947240174,-0.09207482635975,-0.01197065692395,0.995678007602692],"scale":[1,1,1],"translation":[0.0703021064400673,-0.00374530931003,-0.01141179166734]},{"children":[64],"name":"LeftHandRing2","rotation":[0.000518569897394627,0.0258822441101074,-0.00025500540505,0.999664843082428],"scale":[1,1,1],"translation":[0.0431354567408562,-0.00002088230758,-0.00223517837003]},{"name":"LeftHandRing3","rotation":[-0,-0,0.0000000000000000136609473733174,1],"scale":[1,1,1],"translation":[0.0308355651795864,0.0000000000771049682435354,-0.00000001649327]},{"children":[66],"name":"LeftHandPinky1","rotation":[0.00649605737999082,-0.08974071592093,-0.01151872612536,0.995877325534821],"scale":[1,1,1],"translation":[0.0656599476933479,-0.00782510638237,-0.03225124627352]},{"children":[67],"name":"LeftHandPinky2","rotation":[-0.00017062846746,0.00966134760528803,0.00536240125074983,0.99993896484375],"scale":[1,1,1],"translation":[0.0308054480701685,-0.00003087457299,-0.00144807749894]},{"name":"LeftHandPinky3","rotation":[-0,0.0000000000000000416333634234434,0.0000000000000000008673617379884,1],"scale":[1,1,1],"translation":[0.0230640266090631,-0.00000640258077,0.0000000183320949531662]},{"children":[69],"name":"RightUpLeg","rotation":[0.093249186873436,-0.00190199003555,0.0250150673091412,0.995326697826386],"scale":[1,1,1],"translation":[-0.07544953376055,-0.04566399008036,0]},{"children":[70],"name":"RightLeg","rotation":[-0.02293441258371,0.00125588523223996,-0.01899617910385,0.999555706977844],"scale":[1,1,1],"translation":[-0.02055046707392,-0.40913000702858,0.00717136543244123]},{"children":[71],"name":"RightFoot","rotation":[0,0,0,1],"scale":[1,1,1],"translation":[-0.00515299942344,-0.42315590381622,-0.01203208882362]},{"name":"RightToes","rotation":[0,0,0,1],"scale":[1,1,1],"translation":[-0.0074869999662,-0.07316730171442,0.145427495241165]},{"children":[73],"name":"LeftUpLeg","rotation":[0.093249186873436,0.00190199282951653,-0.02501510642469,0.995326697826386],"scale":[1,1,1],"translation":[0.0754494965076447,-0.04566401988268,0]},{"children":[74],"name":"LeftLeg","rotation":[-0.02293441258371,-0.0012558872113,0.0189962089061737,0.999555706977844],"scale":[1,1,1],"translation":[0.0205504987388849,-0.40912997722626,0.00717136543244123]},{"children":[75],"name":"LeftFoot","rotation":[0,0,0,1],"scale":[1,1,1],"translation":[0.00515299942344427,-0.42315590381622,-0.01203208882362]},{"name":"LeftToes","rotation":[0,0,0,1],"scale":[1,1,1],"translation":[0.00748699996620417,-0.07316730171442,0.145427122712135]}],"samplers":[{}],"scene":0,"scenes":[{"name":"Root Scene","nodes":[0]}],"skins":[{"joints":[1,2,3,4,5,6,7,8,9,10,11,12,13,14,15,16,17,18,19,20,21,22,23,24,25,26,27,28,29,30,31,32,33,34,35,36,37,38,39,40,41,42,43,44,45,46,47,48,49,50,51,52,53,54,55,56,57,58,59,60,61,62,63,64,65,66,67,68,69,70,71,72,73,74,75]},{"joints":[1,2,3,4,5,6,7,8,30,31,32,33,34,35,36,37,38,39,40,41,42,43,44,45,46,47,48,49,50,51,52,53,54,55,56,57,58,59,60,61,62,63,64,65,66,67,68,69,70,71,72,73,74,75,0]}]}